<svg width="92" height="134" viewBox="0 0 92 134" fill="none" xmlns="http://www.w3.org/2000/svg">
<path d="M43.8872 42.1738C38.8772 36.0338 34.0973 29.7638 30.8773 22.4738C30.2173 20.9738 29.6672 19.3838 29.3172 17.7738C27.6372 9.93378 32.8072 2.0438 40.6472 0.353802C50.6972 -1.8162 59.8472 6.29379 58.8272 16.5238C58.6972 17.8138 58.2672 19.0938 57.8672 20.3338C55.6872 27.0938 48.1872 37.5238 43.8872 42.1738ZM43.9373 39.0738C48.7473 32.8538 53.3172 26.7938 56.0172 19.5638C56.8172 17.4138 57.1372 15.1838 56.7772 12.9238C55.5672 5.35381 48.2472 0.493814 40.8472 2.30381C33.4772 4.10381 29.2672 11.6738 31.7072 18.9538C34.2372 26.4938 39.0472 32.6738 43.9272 39.0738" fill="#FFFDC0"/>
<path d="M43.8881 20.6656C40.8081 20.6256 38.2281 17.9956 38.2581 14.9256C38.2881 11.8556 40.9581 9.24561 43.9981 9.28561C47.0781 9.33561 49.6681 11.9756 49.6281 15.0356C49.5881 18.1256 46.9581 20.6956 43.8881 20.6556M47.6281 15.0956C47.7081 13.1856 46.0181 11.3956 44.0581 11.3256C42.1381 11.2556 40.3581 12.9356 40.2781 14.8856C40.1981 16.7956 41.8981 18.5956 43.8481 18.6556C45.7881 18.7156 47.5481 17.0656 47.6281 15.0956Z" fill="#FFFDC0"/>
<path id="geo-map" transform="translate(0, -20)" d="M47.2488 94.6735C47.6088 94.9335 47.8888 95.1934 48.2088 95.3734C48.5388 95.5534 48.7889 95.8035 48.9689 96.1135C49.1689 96.4535 49.4489 96.6134 49.8489 96.6334C50.4389 96.6534 50.9088 96.9235 51.2588 97.3935C51.4188 97.6135 51.6088 97.7535 51.8788 97.8035C52.4188 97.9135 52.8688 98.1635 53.1388 98.6735C53.2088 98.7935 53.3488 98.9134 53.4788 98.9634C53.9288 99.1334 54.2788 99.4135 54.5688 99.7935C55.1488 99.5035 55.6088 99.1334 55.9188 98.5634C56.2988 97.8634 56.5688 97.1434 56.6288 96.3434C56.6488 96.0934 56.7088 95.8334 56.7988 95.5934C56.9688 95.1034 56.9888 94.6135 56.8188 94.1135C56.6688 93.6635 56.6788 93.2135 56.9188 92.8035C57.3788 92.0035 57.4789 91.0934 57.7189 90.2234C57.8189 89.8434 57.9688 89.4834 58.1388 89.1234C58.2888 88.8234 58.5088 88.8234 58.6988 89.1234C58.7788 89.2534 58.8388 89.3935 58.8988 89.5435C59.0388 89.8835 59.1988 90.2134 59.3088 90.5634C59.3888 90.8034 59.4089 91.0535 59.4689 91.3035C59.4889 91.3735 59.5288 91.4535 59.5688 91.5135C59.7288 91.7335 59.9289 91.9335 60.0389 92.1735C60.1189 92.3535 60.1589 92.6034 60.0989 92.7834C59.9289 93.2434 59.9688 93.6735 60.1088 94.1135C60.1588 94.2635 60.2088 94.4234 60.2588 94.5734C60.3188 94.7834 60.4488 94.7934 60.6088 94.6934C60.6788 94.6534 60.7388 94.5834 60.7988 94.5234C61.0788 94.2734 61.3588 94.2934 61.5888 94.5934C61.6688 94.6934 61.7089 94.8235 61.7889 94.9235C61.9189 95.0835 62.0388 95.2734 62.1988 95.3834C62.4288 95.5534 62.5588 95.7434 62.5188 96.0334C62.4888 96.2634 62.4288 96.4934 62.4288 96.7134C62.4288 97.1034 62.4489 97.4934 62.4689 97.8834C62.4689 97.9234 62.5288 97.9835 62.5688 98.0135C63.1388 98.4235 63.4988 98.9334 63.4788 99.6634C63.4688 100.013 63.4488 100.353 63.4588 100.703C63.4588 100.803 63.5188 100.913 63.5488 101.013C63.6288 101.253 63.7689 101.503 63.7889 101.753C63.8489 102.353 64.0488 102.573 64.6188 102.713C64.9588 102.793 65.2788 102.973 65.5788 103.153C65.9688 103.393 66.3389 103.673 66.7189 103.943C67.0289 104.163 67.1788 104.453 67.1388 104.843C67.1288 104.943 67.1588 105.083 67.2288 105.133C67.7988 105.633 68.0388 106.273 68.0588 107.023C68.0588 107.293 68.1088 107.583 68.3388 107.813C68.4188 107.743 68.4789 107.693 68.5389 107.633C68.7389 107.433 68.8888 107.433 69.1188 107.603C69.2688 107.713 69.4289 107.813 69.5989 107.883C69.8789 108.003 69.9388 108.133 69.8788 108.423C69.8288 108.683 69.7989 108.963 69.7789 109.233C69.7589 109.513 69.8089 109.743 70.1589 109.843C70.3189 109.883 70.4388 110.093 70.5788 110.243C70.7888 110.473 70.9788 110.733 71.2088 110.933C71.5588 111.243 71.7988 111.593 71.8888 112.073C71.9388 112.343 72.0388 112.623 72.1888 112.853C72.5088 113.353 72.4288 113.873 72.3388 114.393C72.2788 114.763 72.1589 115.123 72.0989 115.493C72.0689 115.653 72.0988 115.823 72.1388 115.983C72.1688 116.133 72.2488 116.263 72.3088 116.413C72.5788 117.053 72.5488 117.673 72.2088 118.283C71.8488 118.923 71.4388 119.533 71.2688 120.263C71.1988 120.523 71.1089 120.783 71.0389 121.053C70.8989 121.553 70.6388 121.983 70.3288 122.403C70.0888 122.733 69.8688 123.103 69.6788 123.473C69.4988 123.823 69.2788 124.133 68.9288 124.323C68.4288 124.603 68.1388 125.033 67.9488 125.553C67.8588 125.803 67.7588 126.043 67.6488 126.283C67.4888 126.653 67.2288 126.953 66.8888 127.163C66.2988 127.523 65.9689 128.043 65.8489 128.723C65.7689 129.153 65.6488 129.573 65.5688 129.993C65.4388 130.663 65.0188 131.033 64.3688 131.153C63.7488 131.273 63.1288 131.373 62.4888 131.263C62.4288 131.263 62.3288 131.313 62.2988 131.363C62.0588 131.743 61.7388 132.013 61.3088 132.183C61.0488 132.283 60.7989 132.413 60.5389 132.533C60.3489 132.613 60.1989 132.573 60.0289 132.433C59.8589 132.293 59.6388 132.203 59.4488 132.083C59.3088 132.003 59.1588 131.933 59.0588 131.813C58.7188 131.463 58.4789 131.393 58.0289 131.583C57.7389 131.703 57.4688 131.873 57.1688 131.983C56.9988 132.043 56.7788 132.043 56.6088 131.993C56.2588 131.893 55.9188 131.753 55.5788 131.613C55.3788 131.533 55.1688 131.433 54.9988 131.303C54.8788 131.213 54.7888 131.203 54.6788 131.273C54.3488 131.493 54.0688 131.423 53.8188 131.153C53.7688 131.103 53.6988 131.043 53.6288 131.033C53.2488 130.943 53.0389 130.663 52.8489 130.353C52.7189 130.143 52.5388 129.973 52.3788 129.783C52.1888 129.573 52.1188 129.353 52.1688 129.063C52.3188 128.283 52.0088 127.663 51.3888 127.193C51.2788 127.113 51.0788 127.113 50.9288 127.123C50.5488 127.123 50.4088 127.033 50.3988 126.643C50.3988 126.423 50.3989 126.193 50.4689 125.983C50.5489 125.693 50.3388 125.643 50.1688 125.563C49.9688 125.473 49.8388 125.563 49.7688 125.753C49.6688 126.023 49.5589 126.273 49.2789 126.413C49.0889 126.513 48.8788 126.653 48.6888 126.473C48.4988 126.303 48.5488 126.053 48.6688 125.853C48.7888 125.663 48.9388 125.483 49.0888 125.313C49.2788 125.093 49.3988 124.863 49.4288 124.563C49.4388 124.383 49.5088 124.183 49.6188 124.053C50.0788 123.473 50.0988 123.333 49.6788 122.663C49.6288 122.773 49.5888 122.853 49.5588 122.943C49.3188 123.673 48.8988 124.223 48.1288 124.503C47.8088 124.613 47.5389 124.903 47.2889 125.143C46.7989 125.593 46.6088 125.563 46.3688 124.933C46.3188 124.793 46.2588 124.643 46.2088 124.503C46.0788 124.083 45.8388 123.743 45.4988 123.463C45.1488 123.183 44.8788 122.863 44.7288 122.433C44.5888 122.043 44.3089 121.783 43.9089 121.683C43.4489 121.563 42.9888 121.433 42.5188 121.373C41.9588 121.293 41.4888 121.093 41.1288 120.643C41.0588 120.553 40.9788 120.473 40.8988 120.383C39.9888 120.833 39.0288 120.873 38.0488 120.843C37.3488 120.823 36.7089 121.103 36.0989 121.403C35.4489 121.743 34.7889 121.833 34.0989 121.653C33.7789 121.573 33.4988 121.653 33.2588 121.853C32.8688 122.183 32.4188 122.393 31.9388 122.563C31.5188 122.713 31.2088 122.983 31.0888 123.443C31.0488 123.613 30.9688 123.783 30.8788 123.933C30.7688 124.133 30.5889 124.223 30.3489 124.233C30.0589 124.253 29.7788 124.323 29.4888 124.343C29.3288 124.353 29.1488 124.363 29.0188 124.303C28.4088 123.983 27.7588 124.003 27.1188 124.123C26.7588 124.193 26.4388 124.133 26.1288 123.993C25.8888 123.873 25.7388 123.923 25.6188 124.193C25.4488 124.613 25.1188 124.883 24.6988 125.063C24.4188 125.183 24.1688 125.363 23.9288 125.553C23.6588 125.773 23.3688 125.903 23.0188 125.903C22.5088 125.893 21.9888 125.883 21.4788 125.843C21.1388 125.823 20.8289 125.683 20.5989 125.423C20.3589 125.163 20.0788 125.033 19.7388 124.963C19.5588 124.923 19.3788 124.843 19.2288 124.743C18.9288 124.533 18.9288 124.233 19.1888 123.983C19.2088 123.963 19.2288 123.943 19.2488 123.933C19.7888 123.673 19.8888 123.203 19.8588 122.663C19.8488 122.383 19.8788 122.103 19.8788 121.823C19.8788 121.743 19.8488 121.663 19.8088 121.593C19.5588 121.143 19.2988 120.703 19.0588 120.253C18.9088 119.963 18.7388 119.683 18.6488 119.373C18.5088 118.893 18.3888 118.403 18.3188 117.913C18.2588 117.463 18.0988 117.093 17.7388 116.813C17.3188 116.493 17.0989 116.093 17.0389 115.563C17.0089 115.273 16.8589 114.983 16.7189 114.713C16.3289 113.943 15.9088 113.173 15.5088 112.403C15.4588 112.303 15.4288 112.173 15.4288 112.063C15.4288 111.973 15.4689 111.843 15.5289 111.813C15.5989 111.783 15.7188 111.833 15.8088 111.873C15.8488 111.893 15.8788 111.973 15.9188 111.973C16.0088 111.973 16.1188 111.973 16.1888 111.923C16.2288 111.893 16.2588 111.773 16.2388 111.723C16.1388 111.513 16.0088 111.303 15.8988 111.093C15.6388 110.603 15.3788 110.113 15.1388 109.623C15.0188 109.393 15.0988 109.163 15.1888 108.933C15.3288 108.573 15.4688 108.213 15.5588 107.843C15.5988 107.673 15.5788 107.463 15.5088 107.293C15.2488 106.653 15.4488 106.053 15.6188 105.443C15.6888 105.183 15.8788 105.173 16.0488 105.403C16.1888 105.593 16.2988 105.823 16.6088 105.843C16.7188 105.183 17.2988 104.973 17.7988 104.743C18.3188 104.503 18.8388 104.293 19.2588 103.873C19.5888 103.553 20.0588 103.483 20.4988 103.463C21.0788 103.433 21.5789 103.243 22.0389 102.903C22.4989 102.563 22.9988 102.463 23.5588 102.533C24.1588 102.613 24.6888 102.413 25.2288 102.153C25.9688 101.803 26.5088 101.283 26.8688 100.543C26.9788 100.313 27.2188 100.123 27.4188 99.9535C27.7088 99.7135 27.7788 99.6134 27.6288 99.2834C27.4888 98.9634 27.5688 98.7034 27.7288 98.4334C27.9488 98.0734 28.1789 97.7134 28.4089 97.3534C28.5489 97.1434 28.6888 97.1434 28.8088 97.3534C28.8788 97.4834 28.9388 97.6334 28.9888 97.7734C29.0888 98.0234 29.2789 98.1535 29.5389 98.2335C29.6389 97.9735 29.6989 97.7434 29.5289 97.4934C29.4789 97.4234 29.4388 97.3435 29.4188 97.2635C29.3288 97.0035 29.4788 96.7835 29.7488 96.7935C29.9288 96.7935 30.0989 96.8434 30.2789 96.8834C30.7189 96.9734 30.9388 96.7934 30.8188 96.3734C30.6788 95.8534 30.9788 95.4934 31.1988 95.0934C31.2288 95.0334 31.3588 95.0035 31.4388 94.9835C31.5588 94.9535 31.6988 94.9535 31.8188 94.9235C31.9988 94.8735 32.1088 94.8035 31.9888 94.5835C31.8788 94.3935 31.9588 94.2034 32.1488 94.1334C32.3688 94.0434 32.6188 93.9934 32.8588 93.9734C32.9888 93.9634 33.0688 93.9435 33.1288 93.8035C33.2488 93.5135 33.4288 93.2735 33.7588 93.1735C33.8788 93.1335 33.9988 93.0334 34.0888 92.9434C34.2688 92.7534 34.4688 92.7234 34.6888 92.8434C34.8788 92.9434 35.0988 93.0434 35.2488 93.1934C35.6588 93.6234 36.0588 94.0734 36.4288 94.5334C36.5688 94.7134 36.7288 94.7934 36.9288 94.7734C37.2988 94.7334 37.6388 94.8334 37.9488 95.0234C38.1988 95.1834 38.4889 95.2134 38.7889 95.1834C38.9289 95.1734 39.0088 95.0934 38.9788 94.9734C38.9188 94.7834 38.8388 94.5935 38.7488 94.4235C38.6588 94.2735 38.5188 94.1434 38.4388 93.9934C38.3088 93.7334 38.3688 93.5234 38.6188 93.3834C38.8488 93.2634 38.9388 93.0834 38.9988 92.8434C39.0388 92.6834 39.1589 92.5235 39.2889 92.4235C39.4889 92.2735 39.6089 92.1134 39.5989 91.8734C39.5989 91.5334 39.7588 91.3134 40.0188 91.1234C40.2488 90.9634 40.4788 90.8035 40.7088 90.6435C40.9788 90.4535 41.2888 90.4434 41.5688 90.5734C41.8588 90.7034 42.0988 90.6734 42.3788 90.5734C42.6288 90.4834 42.9088 90.4935 43.2088 90.4535C43.2388 90.2735 43.2588 90.0734 43.2988 89.8834C43.3288 89.7634 43.3688 89.6334 43.4388 89.5334C43.5688 89.3334 43.7988 89.3234 43.9188 89.5334C44.1088 89.8934 44.3988 89.9134 44.7588 89.9034C45.0188 89.9034 45.2889 89.9935 45.5289 90.1135C45.8589 90.2735 46.1788 90.3934 46.5588 90.3434C46.6388 90.3334 46.7388 90.3335 46.8088 90.3635C47.1388 90.5435 47.4888 90.6034 47.8588 90.6034C48.1388 90.6034 48.3388 90.7934 48.4888 91.0734C48.6488 90.9434 48.7788 90.8334 48.9188 90.7234C49.2088 90.4734 49.4989 90.4535 49.7189 90.6735C49.9289 90.8835 49.9088 91.2335 49.6888 91.5135C49.5288 91.7235 49.3888 91.9435 49.2688 92.1735C49.1688 92.3835 49.0288 92.4834 48.8088 92.5334C48.4288 92.6134 48.3388 92.7434 48.3788 93.1234C48.4388 93.6234 48.2488 94.0034 47.8288 94.2734C47.6688 94.3734 47.4988 94.4835 47.2588 94.6435L47.2488 94.6735Z" stroke="#FFFDC0" stroke-miterlimit="10"/>
</svg>
