<svg width="696" height="120" viewBox="0 0 696 120" fill="none" xmlns="http://www.w3.org/2000/svg">
<g clip-path="url(#clip0_209_376)">
<path d="M292.878 32.7676L275.469 119.999H279.514L296.89 32.7676H292.878Z" fill="white"/>
<path d="M200.978 71.332C200.008 71.332 199.231 70.6197 199.231 69.713C199.231 69.713 199.231 69.6807 199.231 69.6483V41.9634C199.328 41.1539 200.072 40.5063 200.946 40.5063C201.82 40.5063 202.596 41.1539 202.661 41.9634V42.093C202.661 42.093 202.661 42.1901 202.661 42.2225V69.6483C202.661 69.6483 202.661 69.6807 202.661 69.713C202.661 70.6197 201.884 71.332 200.914 71.332M204.247 35.4551H197.743C192.242 35.4551 191.918 39.8911 191.918 42.7729V69.0654C191.918 71.9473 192.242 76.3833 197.743 76.3833H204.247C209.748 76.3833 210.071 71.9473 210.071 69.0654V42.7729C210.071 39.8911 209.748 35.4551 204.247 35.4551Z" fill="white"/>
<path d="M81.8027 35.4551H96.7847V40.5387H89.6335V76.3833H81.8027V35.4551Z" fill="white"/>
<path d="M97.9492 76.3833H105.618L106.362 65.5036H110.084L110.796 76.3833H118.497L114.387 35.4551H102.059L97.9492 76.3833ZM106.621 61.0028L107.98 40.5387H108.433L109.792 61.0028H106.654H106.621Z" fill="white"/>
<path d="M129.725 62.0393V69.7457C129.725 70.8143 130.502 71.1057 130.955 71.1057C131.667 71.1057 132.185 70.4581 132.185 69.7457V60.226C132.185 58.9308 131.958 57.5385 129.046 57.5385H125.875V53.0377H129.175C131.408 53.0377 132.217 52.5196 132.217 49.994V41.8342C132.217 41.1219 131.699 40.5067 130.987 40.5067C130.534 40.5067 129.758 40.7981 129.758 41.8342V48.5045H121.895V42.7085C121.895 39.8267 122.25 35.3906 127.719 35.3906H134.223C139.724 35.3906 140.048 39.8267 140.048 42.7085V49.2492C140.048 53.6853 137.071 54.9157 134.709 54.7862V55.2071C139.983 55.0776 140.048 59.287 140.048 60.7765V69.001C140.048 71.8828 139.724 76.3188 134.223 76.3188H127.719C122.218 76.3188 121.895 71.8828 121.895 69.001V61.9745H129.758L129.725 62.0393Z" fill="white"/>
<path d="M145.225 35.4551H163.378V76.3833H156.065V40.5387H152.538V76.3833H145.225V35.4551Z" fill="white"/>
<path d="M169.074 76.3833H176.937V62.4599H181.435C186.936 62.4599 187.81 58.0239 187.81 55.1421V42.7729C187.81 39.8911 186.936 35.4551 181.435 35.4551H169.107V76.3833H169.074ZM176.937 57.9591V40.5387H179.008C179.85 40.5387 180.464 41.2835 180.464 42.5787V55.9192C180.464 57.2144 179.85 57.9591 179.008 57.9591H176.937Z" fill="white"/>
<path d="M235.149 35.4551H245.374V76.3833H237.511V50.706H237.22L233.175 76.3833H226.897L222.852 50.706H222.561V76.3833H214.73V35.4551H224.923L230.004 64.2085L235.149 35.4551Z" fill="white"/>
<path d="M65.0412 39.6006C64.9441 43.7453 64.4588 48.1166 63.8116 50.7393C64.0381 46.2385 63.488 39.8597 62.4525 34.9056C61.4171 29.9514 58.4724 21.6622 56.1426 17.809C53.9746 21.4679 51.3212 28.6239 49.9298 34.8732C48.5384 41.0901 48.4736 48.6346 48.4736 50.9012C48.0853 48.9908 47.1793 42.191 47.4382 35.3589C47.6647 29.7248 48.959 23.9288 49.7033 21.2736C52.4537 12.3691 55.5602 6.70264 56.1426 5.79601C56.7251 6.70264 60.6405 13.6967 62.679 21.0469C64.7176 28.3972 65.1059 35.456 65.0089 39.6006M56.2073 71.3654C54.9777 69.0664 53.1009 64.6951 52.9068 57.9277C52.8744 51.3869 55.4631 45.7852 56.2397 44.6195C56.9192 45.7852 59.1843 50.6746 59.4432 57.3448C59.6373 63.8856 57.4693 69.034 56.2073 71.3654ZM65.7531 21.1765C63.2615 10.2968 57.0487 1.4571 56.2073 0C54.8483 2.03994 49.8974 9.8435 47.3734 18.4889C44.623 28.1382 44.2023 36.7188 45.1731 45.17C46.1115 53.5888 49.6709 62.2666 49.6709 62.2666C51.5477 66.8322 54.3952 71.6891 56.2397 74.0853C58.9578 70.5558 65.1706 60.0648 67.1122 46.3357C68.18 38.694 68.2447 32.0237 65.7531 21.1441" fill="white"/>
<path d="M40.9659 76.3852V89.24C40.9659 89.24 40.9659 89.2076 41.0306 89.1752C45.5285 84.7068 52.8091 84.7068 57.307 89.1752C61.8048 93.6437 61.8048 100.929 57.307 105.398C57.307 105.398 57.2746 105.43 57.2423 105.462C57.2423 105.462 57.2099 105.495 57.1776 105.527C52.6797 109.963 46.8228 112.197 40.9659 112.197C35.109 112.197 29.1874 109.963 24.7219 105.495C16.8264 97.594 15.8557 85.3868 21.9067 76.4823C22.7157 75.2842 23.6541 74.1186 24.7219 73.0824C29.2198 68.614 35.109 66.3798 40.9659 66.3798V35.6836C18.3473 35.6836 0 53.9459 0 76.4823C0 99.0187 18.3473 117.313 40.9659 117.313C52.7768 117.313 63.3904 112.327 70.8652 104.394V76.3852H40.9659Z" fill="white"/>
<path d="M238.03 107.63C238.03 111.516 236.25 112.228 231.752 112.228H227.61V94.4517H231.752V101.316H232.432C236.509 101.316 238.03 102.255 238.03 105.817V107.63ZM203.406 97.7868H200.267V112.196H196.32V97.7868H192.954V94.4193H203.406V97.7868ZM171.533 105.882C171.533 109.476 169.689 110.447 165.611 110.447V112.196H161.567V110.447C157.457 110.447 155.613 109.476 155.613 105.882V100.345C155.613 96.7183 157.392 95.8116 161.567 95.8116V94.4841H165.611V95.8116C169.753 95.8116 171.533 96.7183 171.533 100.345V105.882ZM133.932 97.7868H128.27V101.284H133.35V104.651H128.27V108.828H133.932V112.196H123.998V94.3869H133.932V97.7544V97.7868ZM99.5352 112.228H95.3933V104.457H93.2577V112.228H89.1158V94.4517H93.2577V101.316H95.3933V94.4517H99.5352V112.228ZM245.375 90.0156H81.8027V117.312H245.375V90.0156ZM159.657 100.215V105.914C159.657 106.95 159.981 107.209 160.919 107.209H161.599V98.9201H160.919C160.013 98.9201 159.657 99.1791 159.657 100.215ZM232.658 104.425H231.752V109.055H232.658C233.597 109.055 233.856 108.828 233.856 107.792V105.655C233.856 104.651 233.564 104.392 232.658 104.392M166.226 98.8877H165.579V107.177H166.226C167.132 107.177 167.488 106.918 167.488 105.882V100.183C167.488 99.1468 167.165 98.9201 166.226 98.9201" fill="white"/>
<path d="M344.068 48.0531H334.005V68.4201H329.021V43.8438H344.068V48.0531Z" fill="white"/>
<path d="M343 68.4201L351.543 43.8438H356.299L364.842 68.4201H359.535L358.047 63.7574H349.828L348.339 68.4201H343ZM351.154 59.548H356.72L353.937 50.9026L351.154 59.548Z" fill="white"/>
<path d="M372.901 53.5573H375.586C377.01 53.5573 378.013 53.2983 378.596 52.7478C379.178 52.1974 379.502 51.485 379.502 50.5784C379.502 49.7365 379.243 49.0241 378.693 48.506C378.143 47.988 377.204 47.6965 375.845 47.6965C374.486 47.6965 373.548 47.988 372.901 48.5384C372.253 49.0889 371.8 49.8012 371.477 50.6755H367.108C367.205 49.5746 367.497 48.6032 368.014 47.6965C368.532 46.8223 369.179 46.0452 369.988 45.4299C370.797 44.8147 371.703 44.329 372.739 44.0052C373.774 43.6814 374.874 43.5195 376.039 43.5195C377.204 43.5195 378.207 43.6491 379.243 43.9405C380.278 44.1995 381.152 44.6204 381.961 45.1709C382.738 45.7214 383.352 46.4013 383.838 47.2432C384.291 48.0851 384.517 49.0241 384.517 50.125C384.517 51.4202 384.226 52.4888 383.676 53.3306C383.093 54.1725 382.317 54.9173 381.314 55.5001C382.511 55.9858 383.482 56.7305 384.226 57.7343C384.938 58.7057 385.294 59.9362 385.294 61.3932C385.294 62.4942 385.1 63.5303 384.679 64.437C384.258 65.3436 383.644 66.1207 382.867 66.7359C382.058 67.3835 381.087 67.8692 379.955 68.2254C378.79 68.5816 377.495 68.7435 376.039 68.7435C373.418 68.7435 371.25 68.1283 369.6 66.9302C367.95 65.7322 366.882 63.8541 366.396 61.2961H371.153C371.606 62.397 372.189 63.2389 372.868 63.757C373.58 64.2751 374.551 64.5341 375.845 64.5341C378.822 64.5341 380.343 63.4008 380.343 61.1666C380.343 58.9324 378.757 57.7991 375.586 57.7991H372.998V53.5897L372.901 53.5573Z" fill="white"/>
<path d="M408.558 43.8438V68.4201H403.575V48.0531H394.677V68.4201H389.693V43.8438H408.558Z" fill="white"/>
<path d="M419.237 59.7415V68.3869H414.254V43.8105H423.055C425.871 43.8105 428.103 44.4581 429.754 45.7533C431.404 47.0485 432.213 49.0237 432.213 51.6789C432.213 54.334 431.404 56.2768 429.786 57.6692C428.168 59.0615 425.903 59.7415 423.055 59.7415H419.237ZM422.311 55.5645C424.059 55.5645 425.288 55.2407 426.065 54.6254C426.841 54.0102 427.23 53.0388 427.23 51.6789C427.23 50.4808 426.841 49.5742 426.065 48.959C425.288 48.3437 424.059 48.0199 422.311 48.0199H419.205V55.5321H422.311V55.5645Z" fill="white"/>
<path d="M454.185 57.8638C454.185 59.7419 453.959 61.3609 453.506 62.7208C453.053 64.0808 452.405 65.2141 451.564 66.0883C450.723 66.995 449.752 67.6426 448.587 68.0635C447.422 68.4845 446.16 68.7111 444.769 68.7111C443.377 68.7111 442.115 68.4845 440.983 68.0635C439.818 67.6426 438.847 66.9626 438.006 66.0883C437.164 65.2141 436.517 64.0808 436.064 62.7208C435.611 61.3609 435.385 59.7419 435.385 57.8638V54.3668C435.385 52.4564 435.611 50.8374 436.064 49.4774C436.517 48.1175 437.164 46.9842 438.006 46.0775C438.847 45.1709 439.818 44.5233 440.983 44.1348C442.148 43.7138 443.41 43.5195 444.769 43.5195C446.128 43.5195 447.422 43.7138 448.587 44.1348C449.752 44.5557 450.755 45.2033 451.564 46.0775C452.405 46.9518 453.053 48.0851 453.506 49.4774C453.959 50.8374 454.185 52.4888 454.185 54.3668V57.8638ZM440.336 57.8638C440.336 60.2276 440.724 61.9113 441.468 62.9475C442.212 63.9836 443.313 64.5017 444.769 64.5017C446.225 64.5017 447.325 63.9836 448.069 62.9475C448.814 61.9113 449.202 60.1952 449.202 57.8638V54.3668C449.202 52.0031 448.814 50.3193 448.069 49.2832C447.293 48.247 446.193 47.7289 444.769 47.7289C443.345 47.7289 442.212 48.247 441.468 49.2832C440.724 50.3193 440.336 52.0355 440.336 54.3668V57.8638Z" fill="white"/>
<path d="M470.687 57.2158L477.514 43.8429H482.239V68.4193H477.482V53.1683L472.143 63.9832H469.134L463.859 53.2655V68.3869H459.135V43.8105H463.794L470.687 57.1835V57.2158Z" fill="white"/>
<path d="M492.917 53.5901H501.427V43.8438H506.41V68.4201H501.427V57.7995H492.917V68.4201H487.934V43.8438H492.917V53.5901Z" fill="white"/>
<path d="M527.444 43.8438V48.0531H517.122V53.6225H526.376V57.8319H517.122V64.2431H527.444V68.4525H512.139V43.8761H527.444V43.8438Z" fill="white"/>
<path d="M540.841 43.8438H545.825V45.6246C547.248 45.6246 548.575 45.7865 549.772 46.1103C550.97 46.4341 552.037 46.9846 552.911 47.7617C553.817 48.5388 554.497 49.5426 555.014 50.8378C555.532 52.1006 555.791 53.6872 555.791 55.5977V56.731C555.791 58.6414 555.532 60.228 555.014 61.4908C554.497 62.7536 553.817 63.7898 552.911 64.5669C552.037 65.344 550.97 65.8945 549.772 66.2183C548.575 66.5421 547.248 66.704 545.825 66.704V68.4849H540.841V66.704C539.418 66.704 538.091 66.5421 536.861 66.2183C535.632 65.8945 534.596 65.344 533.69 64.5669C532.784 63.7898 532.105 62.786 531.619 61.4908C531.134 60.228 530.875 58.6414 530.875 56.731V55.5977C530.875 53.6872 531.134 52.1006 531.619 50.8378C532.105 49.575 532.816 48.5388 533.69 47.7617C534.564 46.9846 535.632 46.4341 536.861 46.1103C538.091 45.7865 539.418 45.6246 540.841 45.6246V43.8438ZM540.841 49.834C540 49.834 539.288 49.9312 538.673 50.0931C538.059 50.2874 537.541 50.5788 537.12 50.9997C536.7 51.4207 536.376 52.0035 536.182 52.7482C535.955 53.493 535.858 54.432 535.858 55.5653V56.6986C535.858 57.8319 535.955 58.7709 536.182 59.5156C536.408 60.2604 536.7 60.8432 537.12 61.2641C537.541 61.6851 538.059 62.0089 538.673 62.1708C539.288 62.3327 540 62.4298 540.841 62.4298V49.834ZM545.825 62.4298C546.666 62.4298 547.378 62.3327 547.993 62.1708C548.608 62.0089 549.125 61.6851 549.546 61.2641C549.967 60.8432 550.29 60.2604 550.484 59.5156C550.711 58.7709 550.808 57.8319 550.808 56.6986V55.5653C550.808 54.432 550.711 53.493 550.484 52.7482C550.258 52.0035 549.967 51.4207 549.546 50.9997C549.125 50.5788 548.608 50.255 547.993 50.0931C547.378 49.9312 546.666 49.834 545.825 49.834V62.4298Z" fill="white"/>
<path d="M576.242 43.8438V48.0531H569.479V68.4201H564.495V48.0531H557.732V43.8438H576.242Z" fill="white"/>
<path d="M584.784 43.8438V52.8454H588.602C590.253 52.8454 591.644 53.0396 592.777 53.4606C593.909 53.8815 594.88 54.432 595.624 55.1443C596.368 55.8567 596.918 56.6986 597.274 57.6376C597.63 58.5766 597.792 59.5804 597.792 60.6489C597.792 61.7175 597.63 62.7212 597.274 63.6603C596.918 64.5993 596.368 65.4088 595.624 66.1211C594.88 66.8335 593.941 67.384 592.777 67.8049C591.612 68.2258 590.22 68.4201 588.602 68.4201H579.801V43.8438H584.784ZM584.784 57.0548V64.2107H588.311C589.961 64.2107 591.094 63.8869 591.773 63.2393C592.453 62.5917 592.777 61.7175 592.777 60.6489C592.777 59.5804 592.453 58.6414 591.773 58.0262C591.094 57.3786 589.929 57.0548 588.311 57.0548H584.784Z" fill="white"/>
<path d="M334.005 105.01H342.903V84.6426H347.887V105.01H351.446V113.849H346.916V109.219H329.021V84.6426H334.005V105.01Z" fill="white"/>
<path d="M360.248 84.6094V100.022L370.505 84.6094H374.485V109.186H369.502V93.9348L359.374 109.186H355.297V84.6094H360.28H360.248Z" fill="white"/>
<path d="M389.273 84.6094H394.256V86.3903C395.68 86.3903 397.007 86.5522 398.204 86.876C399.401 87.1998 400.469 87.7502 401.343 88.5273C402.249 89.3045 402.928 90.3082 403.446 91.6034C403.964 92.8663 404.223 94.4529 404.223 96.3633V97.4966C404.223 99.407 403.964 100.994 403.446 102.256C402.928 103.519 402.249 104.555 401.343 105.333C400.437 106.11 399.401 106.66 398.204 106.984C397.007 107.308 395.68 107.47 394.256 107.47V109.251H389.273V107.47C387.849 107.47 386.523 107.308 385.293 106.984C384.063 106.66 383.028 106.11 382.122 105.333C381.248 104.555 380.536 103.552 380.051 102.256C379.565 100.994 379.307 99.407 379.307 97.4966V96.3633C379.307 94.4529 379.565 92.8663 380.051 91.6034C380.536 90.3406 381.248 89.3045 382.122 88.5273C383.028 87.7502 384.063 87.1998 385.293 86.876C386.523 86.5522 387.849 86.3903 389.273 86.3903V84.6094ZM389.273 90.5997C388.432 90.5997 387.72 90.6968 387.105 90.8587C386.49 91.0206 385.973 91.3444 385.552 91.7653C385.131 92.1863 384.808 92.7691 384.613 93.5139C384.387 94.2586 384.29 95.1976 384.29 96.3309V97.4642C384.29 98.5975 384.387 99.5365 384.613 100.281C384.84 101.026 385.131 101.609 385.552 102.03C385.973 102.451 386.49 102.775 387.105 102.936C387.72 103.131 388.432 103.195 389.273 103.195V90.5997ZM394.256 103.228C395.098 103.228 395.81 103.131 396.424 102.969C397.039 102.775 397.557 102.483 397.978 102.062C398.398 101.641 398.722 101.058 398.916 100.314C399.142 99.5689 399.239 98.6299 399.239 97.4966V96.3633C399.239 95.23 399.142 94.291 398.916 93.5462C398.689 92.8015 398.398 92.2187 397.978 91.7977C397.557 91.3768 397.039 91.053 396.424 90.8911C395.81 90.6968 395.098 90.632 394.256 90.632V103.228Z" fill="white"/>
<path d="M413.995 100.54V109.186H409.012V84.6094H417.813C420.628 84.6094 422.861 85.257 424.511 86.5522C426.162 87.8474 426.971 89.8225 426.971 92.4777C426.971 95.1329 426.162 97.0756 424.544 98.468C422.926 99.8603 420.661 100.54 417.813 100.54H413.995ZM417.101 96.3309C418.849 96.3309 420.078 96.0071 420.855 95.3919C421.632 94.7767 422.02 93.8053 422.02 92.4453C422.02 91.2473 421.632 90.3406 420.855 89.7254C420.078 89.1102 418.849 88.7864 417.101 88.7864H413.995V96.2985H417.101V96.3309Z" fill="white"/>
<path d="M448.943 98.6627C448.943 100.541 448.716 102.16 448.263 103.52C447.81 104.88 447.163 106.013 446.322 106.887C445.481 107.761 444.51 108.441 443.345 108.862C442.18 109.283 440.918 109.51 439.527 109.51C438.135 109.51 436.873 109.283 435.741 108.862C434.576 108.441 433.605 107.761 432.764 106.887C431.922 106.013 431.275 104.88 430.822 103.52C430.369 102.16 430.143 100.541 430.143 98.6627V95.1656C430.143 93.2552 430.369 91.6362 430.822 90.2763C431.275 88.9163 431.922 87.783 432.764 86.8764C433.605 86.0021 434.576 85.3221 435.741 84.9336C436.906 84.5126 438.168 84.3184 439.527 84.3184C440.886 84.3184 442.18 84.5126 443.345 84.9336C444.51 85.3545 445.513 86.0021 446.322 86.8764C447.163 87.783 447.81 88.8839 448.263 90.2763C448.716 91.6362 448.943 93.2876 448.943 95.1656V98.6627ZM435.093 98.6627C435.093 101.026 435.482 102.71 436.226 103.746C436.97 104.782 438.07 105.301 439.527 105.301C440.983 105.301 442.083 104.782 442.827 103.746C443.571 102.71 443.96 100.994 443.96 98.6627V95.1656C443.96 92.8019 443.571 91.1181 442.827 90.082C442.083 89.0458 440.95 88.5277 439.527 88.5277C438.103 88.5277 436.97 89.0458 436.226 90.082C435.482 91.1181 435.093 92.8343 435.093 95.1656V98.6627Z" fill="white"/>
<path d="M462.112 84.6094C465.024 84.6094 467.257 85.1275 468.777 86.1636C470.298 87.1998 471.075 88.8188 471.075 91.053C471.075 92.3482 470.784 93.4167 470.201 94.291C469.619 95.1652 468.842 95.8128 467.839 96.2985C469.133 96.7842 470.104 97.4966 470.816 98.4032C471.528 99.3422 471.852 100.573 471.852 102.127C471.852 103.066 471.69 103.973 471.366 104.847C471.043 105.689 470.525 106.466 469.813 107.081C469.101 107.729 468.163 108.247 467.03 108.603C465.898 108.991 464.506 109.186 462.888 109.186H453.893V84.6094H462.112ZM458.876 94.3557H462.176C463.535 94.3557 464.539 94.0967 465.153 93.611C465.768 93.1253 466.092 92.4129 466.092 91.5387C466.092 91.1177 466.027 90.7292 465.898 90.4054C465.768 90.0816 465.542 89.7902 465.218 89.5635C464.894 89.3368 464.441 89.1426 463.859 89.0454C463.277 88.9159 462.565 88.8511 461.659 88.8511H458.876V94.3881V94.3557ZM458.876 105.009H462.468C465.412 105.009 466.868 103.94 466.868 101.771C466.868 100.605 466.48 99.7956 465.703 99.3099C464.927 98.8242 463.697 98.5651 462.015 98.5651H458.876V105.009Z" fill="white"/>
<path d="M481.302 84.6094V93.611H484.764C486.414 93.611 487.806 93.8053 488.971 94.2262C490.135 94.6472 491.074 95.1976 491.818 95.91C492.562 96.6223 493.08 97.4642 493.436 98.4032C493.792 99.3422 493.954 100.346 493.954 101.447C493.954 102.548 493.792 103.519 493.436 104.458C493.08 105.397 492.53 106.207 491.753 106.919C490.977 107.632 489.974 108.182 488.744 108.603C487.514 109.024 486.026 109.218 484.246 109.218H476.318V84.6418H481.302V84.6094ZM481.302 97.8528V105.009H484.473C486.123 105.009 487.256 104.685 487.935 104.037C488.615 103.39 488.938 102.515 488.938 101.447C488.938 100.378 488.615 99.4394 487.935 98.8242C487.256 98.1766 486.091 97.8528 484.473 97.8528H481.302ZM500.523 109.186H495.539V84.6094H500.523V109.186Z" fill="white"/>
<path d="M521.522 84.6094V88.8188H511.2V94.3881H520.455V98.5975H511.2V105.009H521.522V109.218H506.217V84.6418H521.522V84.6094Z" fill="white"/>
<path d="M539.708 100.54V109.186H534.725V84.6094H543.526C546.341 84.6094 548.574 85.257 550.224 86.5522C551.875 87.8474 552.684 89.8225 552.684 92.4777C552.684 95.1329 551.875 97.0756 550.257 98.468C548.639 99.8603 546.374 100.54 543.526 100.54H539.708ZM542.782 96.3309C544.529 96.3309 545.759 96.0071 546.535 95.3919C547.312 94.7767 547.7 93.8053 547.7 92.4453C547.7 91.2473 547.312 90.3406 546.535 89.7254C545.759 89.1102 544.497 88.7864 542.782 88.7864H539.675V96.2985H542.782V96.3309Z" fill="white"/>
<path d="M571.872 84.6094V88.8188H561.55V94.3881H570.804V98.5975H561.55V105.009H571.872V109.218H556.566V84.6418H571.872V84.6094Z" fill="white"/>
<path d="M581.159 105.01H587.89V84.6426H592.873V105.01H599.603V84.6426H604.587V109.219H576.176V84.6426H581.159V105.01Z" fill="white"/>
<path d="M625.556 84.6094V88.8188H615.233V94.3881H624.488V98.5975H615.233V105.009H625.556V109.218H610.25V84.6418H625.556V84.6094Z" fill="white"/>
<path d="M634.843 94.3889H643.353V84.6426H648.336V109.219H643.353V98.5983H634.843V109.219H629.859V84.6426H634.843V94.3889Z" fill="white"/>
<path d="M659.047 84.6094V100.022L669.304 84.6094H673.284V109.186H668.301V93.9348L658.173 109.186H654.096V84.6094H659.079H659.047Z" fill="white"/>
<path d="M677.037 109.186L682.732 98.8889C681.244 98.3708 680.079 97.5614 679.27 96.4281C678.461 95.3271 678.04 93.8377 678.04 92.0568C678.04 89.5635 678.882 87.6855 680.564 86.455C682.247 85.2246 684.48 84.6094 687.327 84.6094H695.999V109.186H691.016V99.5365H687.586L682.506 109.186H677.037ZM691.016 95.3595V88.8511H687.683C686.162 88.8511 684.997 89.0778 684.221 89.5635C683.412 90.0168 683.023 90.8587 683.023 92.0891C683.023 92.6396 683.088 93.1253 683.25 93.5139C683.379 93.9348 683.638 94.2586 683.994 94.55C684.35 94.8091 684.836 95.0357 685.418 95.1652C686 95.2948 686.777 95.3919 687.683 95.3919H691.016V95.3595Z" fill="white"/>
</g>
<defs>
<clipPath id="clip0_209_376">
<rect width="696" height="120" fill="white"/>
</clipPath>
</defs>
</svg>
