<svg width="92" height="132" viewBox="0 0 92 132" fill="none" xmlns="http://www.w3.org/2000/svg">
<path d="M45.8872 42.1738C40.8772 36.0338 36.0973 29.7638 32.8773 22.4738C32.2173 20.9738 31.6672 19.3838 31.3172 17.7738C29.6372 9.93378 34.8072 2.0438 42.6472 0.353802C52.6972 -1.8162 61.8472 6.29379 60.8272 16.5238C60.6972 17.8138 60.2672 19.0938 59.8672 20.3338C57.6872 27.0938 50.1872 37.5238 45.8872 42.1738ZM45.9373 39.0738C50.7473 32.8538 55.3172 26.7938 58.0172 19.5638C58.8172 17.4138 59.1372 15.1838 58.7772 12.9238C57.5672 5.35381 50.2472 0.493814 42.8472 2.30381C35.4772 4.10381 31.2672 11.6738 33.7072 18.9538C36.2372 26.4938 41.0472 32.6738 45.9272 39.0738" fill="#FFFDC0"/>
<path d="M45.6303 20.6637C42.5503 20.6237 39.9703 17.9937 40.0003 14.9237C40.0303 11.8537 42.7003 9.24366 45.7403 9.28366C48.8203 9.33366 51.4103 11.9737 51.3703 15.0337C51.3303 18.1237 48.7003 20.6937 45.6303 20.6537M49.3703 15.0937C49.4503 13.1837 47.7603 11.3937 45.8003 11.3237C43.8803 11.2537 42.1003 12.9337 42.0203 14.8837C41.9403 16.7937 43.6403 18.5937 45.5903 18.6537C47.5303 18.7137 49.2903 17.0637 49.3703 15.0937Z" fill="#FFFDC0"/>
<path d="M49.1707 92.6744C49.5307 92.9344 49.8107 93.1944 50.1307 93.3744C50.4607 93.5544 50.7107 93.8044 50.8907 94.1144C51.0907 94.4544 51.3707 94.6144 51.7707 94.6344C52.3607 94.6544 52.8307 94.9244 53.1807 95.3944C53.3407 95.6144 53.5307 95.7544 53.8007 95.8044C54.3407 95.9144 54.7907 96.1644 55.0607 96.6744C55.1307 96.7944 55.2707 96.9144 55.4007 96.9644C55.8507 97.1344 56.2007 97.4144 56.4907 97.7944C57.0707 97.5044 57.5307 97.1344 57.8407 96.5644C58.2207 95.8644 58.4907 95.1444 58.5507 94.3444C58.5707 94.0944 58.6307 93.8344 58.7207 93.5944C58.8907 93.1044 58.9107 92.6144 58.7407 92.1144C58.5907 91.6644 58.6007 91.2144 58.8407 90.8044C59.3007 90.0044 59.4007 89.0944 59.6407 88.2244C59.7407 87.8444 59.8907 87.4844 60.0607 87.1244C60.2107 86.8244 60.4307 86.8244 60.6207 87.1244C60.7007 87.2544 60.7607 87.3944 60.8207 87.5444C60.9607 87.8844 61.1207 88.2144 61.2307 88.5644C61.3107 88.8044 61.3307 89.0544 61.3907 89.3044C61.4107 89.3744 61.4507 89.4544 61.4907 89.5144C61.6507 89.7344 61.8507 89.9344 61.9607 90.1744C62.0407 90.3544 62.0807 90.6044 62.0207 90.7844C61.8507 91.2444 61.8907 91.6744 62.0307 92.1144C62.0807 92.2644 62.1307 92.4244 62.1807 92.5744C62.2407 92.7844 62.3707 92.7944 62.5307 92.6944C62.6007 92.6544 62.6607 92.5844 62.7207 92.5244C63.0007 92.2744 63.2807 92.2944 63.5107 92.5944C63.5907 92.6944 63.6307 92.8244 63.7107 92.9244C63.8407 93.0844 63.9607 93.2744 64.1207 93.3844C64.3507 93.5544 64.4807 93.7444 64.4407 94.0344C64.4107 94.2644 64.3507 94.4944 64.3507 94.7144C64.3507 95.1044 64.3707 95.4944 64.3907 95.8844C64.3907 95.9244 64.4507 95.9844 64.4907 96.0144C65.0607 96.4244 65.4207 96.9344 65.4007 97.6644C65.3907 98.0144 65.3707 98.3544 65.3807 98.7044C65.3807 98.8044 65.4407 98.9144 65.4707 99.0144C65.5507 99.2544 65.6907 99.5044 65.7107 99.7544C65.7707 100.354 65.9707 100.574 66.5407 100.714C66.8807 100.794 67.2007 100.974 67.5007 101.154C67.8907 101.394 68.2607 101.674 68.6407 101.944C68.9507 102.164 69.1007 102.454 69.0607 102.844C69.0507 102.944 69.0807 103.084 69.1507 103.134C69.7207 103.634 69.9607 104.274 69.9807 105.024C69.9807 105.294 70.0307 105.584 70.2607 105.814C70.3407 105.744 70.4007 105.694 70.4607 105.634C70.6607 105.434 70.8107 105.434 71.0407 105.604C71.1907 105.714 71.3507 105.814 71.5207 105.884C71.8007 106.004 71.8607 106.134 71.8007 106.424C71.7507 106.684 71.7207 106.964 71.7007 107.234C71.6807 107.514 71.7307 107.744 72.0807 107.844C72.2407 107.884 72.3607 108.094 72.5007 108.244C72.7107 108.474 72.9007 108.734 73.1307 108.934C73.4807 109.244 73.7207 109.594 73.8107 110.074C73.8607 110.344 73.9607 110.624 74.1107 110.854C74.4307 111.354 74.3507 111.874 74.2607 112.394C74.2007 112.764 74.0807 113.124 74.0207 113.494C73.9907 113.654 74.0207 113.824 74.0607 113.984C74.0907 114.134 74.1707 114.264 74.2307 114.414C74.5007 115.054 74.4707 115.674 74.1307 116.284C73.7707 116.924 73.3607 117.534 73.1907 118.264C73.1207 118.524 73.0307 118.784 72.9607 119.054C72.8207 119.554 72.5607 119.984 72.2507 120.404C72.0107 120.734 71.7907 121.104 71.6007 121.474C71.4207 121.824 71.2007 122.134 70.8507 122.324C70.3507 122.604 70.0607 123.034 69.8707 123.554C69.7807 123.804 69.6807 124.044 69.5707 124.284C69.4107 124.654 69.1507 124.954 68.8107 125.164C68.2207 125.524 67.8907 126.044 67.7707 126.724C67.6907 127.154 67.5707 127.574 67.4907 127.994C67.3607 128.664 66.9407 129.034 66.2907 129.154C65.6707 129.274 65.0507 129.374 64.4107 129.264C64.3507 129.264 64.2507 129.314 64.2207 129.364C63.9807 129.744 63.6607 130.014 63.2307 130.184C62.9707 130.284 62.7207 130.414 62.4607 130.534C62.2707 130.614 62.1207 130.574 61.9507 130.434C61.7807 130.294 61.5607 130.204 61.3707 130.084C61.2307 130.004 61.0807 129.934 60.9807 129.814C60.6407 129.464 60.4007 129.394 59.9507 129.584C59.6607 129.704 59.3907 129.874 59.0907 129.984C58.9207 130.044 58.7007 130.044 58.5307 129.994C58.1807 129.894 57.8407 129.754 57.5007 129.614C57.3007 129.534 57.0907 129.434 56.9207 129.304C56.8007 129.214 56.7107 129.204 56.6007 129.274C56.2707 129.494 55.9907 129.424 55.7407 129.154C55.6907 129.104 55.6207 129.044 55.5507 129.034C55.1707 128.944 54.9607 128.664 54.7707 128.354C54.6407 128.144 54.4607 127.974 54.3007 127.784C54.1107 127.574 54.0407 127.354 54.0907 127.064C54.2407 126.284 53.9307 125.664 53.3107 125.194C53.2007 125.114 53.0007 125.114 52.8507 125.124C52.4707 125.124 52.3307 125.034 52.3207 124.644C52.3207 124.424 52.3207 124.194 52.3907 123.984C52.4707 123.694 52.2607 123.644 52.0907 123.564C51.8907 123.474 51.7607 123.564 51.6907 123.754C51.5907 124.024 51.4807 124.274 51.2007 124.414C51.0107 124.514 50.8007 124.654 50.6107 124.474C50.4207 124.304 50.4707 124.054 50.5907 123.854C50.7107 123.664 50.8607 123.484 51.0107 123.314C51.2007 123.094 51.3207 122.864 51.3507 122.564C51.3607 122.384 51.4307 122.184 51.5407 122.054C52.0007 121.474 52.0207 121.334 51.6007 120.664C51.5507 120.774 51.5107 120.854 51.4807 120.944C51.2407 121.674 50.8207 122.224 50.0507 122.504C49.7307 122.614 49.4607 122.904 49.2107 123.144C48.7207 123.594 48.5307 123.564 48.2907 122.934C48.2407 122.794 48.1807 122.644 48.1307 122.504C48.0007 122.084 47.7607 121.744 47.4207 121.464C47.0707 121.184 46.8007 120.864 46.6507 120.434C46.5107 120.044 46.2307 119.784 45.8307 119.684C45.3707 119.564 44.9107 119.434 44.4407 119.374C43.8807 119.294 43.4107 119.094 43.0507 118.644C42.9807 118.554 42.9007 118.474 42.8207 118.384C41.9107 118.834 40.9507 118.874 39.9707 118.844C39.2707 118.824 38.6307 119.104 38.0207 119.404C37.3707 119.744 36.7107 119.834 36.0207 119.654C35.7007 119.574 35.4207 119.654 35.1807 119.854C34.7907 120.184 34.3407 120.394 33.8607 120.564C33.4407 120.714 33.1307 120.984 33.0107 121.444C32.9707 121.614 32.8907 121.784 32.8007 121.934C32.6907 122.134 32.5107 122.224 32.2707 122.234C31.9807 122.254 31.7007 122.324 31.4107 122.344C31.2507 122.354 31.0707 122.364 30.9407 122.304C30.3307 121.984 29.6807 122.004 29.0407 122.124C28.6807 122.194 28.3607 122.134 28.0507 121.994C27.8107 121.874 27.6607 121.924 27.5407 122.194C27.3707 122.614 27.0407 122.884 26.6207 123.064C26.3407 123.184 26.0907 123.364 25.8507 123.554C25.5807 123.774 25.2907 123.904 24.9407 123.904C24.4307 123.894 23.9107 123.884 23.4007 123.844C23.0607 123.824 22.7507 123.684 22.5207 123.424C22.2807 123.164 22.0007 123.034 21.6607 122.964C21.4807 122.924 21.3007 122.844 21.1507 122.744C20.8507 122.534 20.8507 122.234 21.1107 121.984C21.1307 121.964 21.1507 121.944 21.1707 121.934C21.7107 121.674 21.8107 121.204 21.7807 120.664C21.7707 120.384 21.8007 120.104 21.8007 119.824C21.8007 119.744 21.7707 119.664 21.7307 119.594C21.4807 119.144 21.2207 118.704 20.9807 118.254C20.8307 117.964 20.6607 117.684 20.5707 117.374C20.4307 116.894 20.3107 116.404 20.2407 115.914C20.1807 115.464 20.0207 115.094 19.6607 114.814C19.2407 114.494 19.0207 114.094 18.9607 113.564C18.9307 113.274 18.7807 112.984 18.6407 112.714C18.2507 111.944 17.8307 111.174 17.4307 110.404C17.3807 110.304 17.3507 110.174 17.3507 110.064C17.3507 109.974 17.3907 109.844 17.4507 109.814C17.5207 109.784 17.6407 109.834 17.7307 109.874C17.7707 109.894 17.8007 109.974 17.8407 109.974C17.9307 109.974 18.0407 109.974 18.1107 109.924C18.1507 109.894 18.1807 109.774 18.1607 109.724C18.0607 109.514 17.9307 109.304 17.8207 109.094C17.5607 108.604 17.3007 108.114 17.0607 107.624C16.9407 107.394 17.0207 107.164 17.1107 106.934C17.2507 106.574 17.3907 106.214 17.4807 105.844C17.5207 105.674 17.5007 105.464 17.4307 105.294C17.1707 104.654 17.3707 104.054 17.5407 103.444C17.6107 103.184 17.8007 103.174 17.9707 103.404C18.1107 103.594 18.2207 103.824 18.5307 103.844C18.6407 103.184 19.2207 102.974 19.7207 102.744C20.2407 102.504 20.7607 102.294 21.1807 101.874C21.5107 101.554 21.9807 101.484 22.4207 101.464C23.0007 101.434 23.5007 101.244 23.9607 100.904C24.4207 100.564 24.9207 100.464 25.4807 100.534C26.0807 100.614 26.6107 100.414 27.1507 100.154C27.8907 99.8044 28.4307 99.2844 28.7907 98.5444C28.9007 98.3144 29.1407 98.1244 29.3407 97.9544C29.6307 97.7144 29.7007 97.6144 29.5507 97.2844C29.4107 96.9644 29.4907 96.7044 29.6507 96.4344C29.8707 96.0744 30.1007 95.7144 30.3307 95.3544C30.4707 95.1444 30.6107 95.1444 30.7307 95.3544C30.8007 95.4844 30.8607 95.6344 30.9107 95.7744C31.0107 96.0244 31.2007 96.1544 31.4607 96.2344C31.5607 95.9744 31.6207 95.7444 31.4507 95.4944C31.4007 95.4244 31.3607 95.3444 31.3407 95.2644C31.2507 95.0044 31.4007 94.7844 31.6707 94.7944C31.8507 94.7944 32.0207 94.8444 32.2007 94.8844C32.6407 94.9744 32.8607 94.7944 32.7407 94.3744C32.6007 93.8544 32.9007 93.4944 33.1207 93.0944C33.1507 93.0344 33.2807 93.0044 33.3607 92.9844C33.4807 92.9544 33.6207 92.9544 33.7407 92.9244C33.9207 92.8744 34.0307 92.8044 33.9107 92.5844C33.8007 92.3944 33.8807 92.2044 34.0707 92.1344C34.2907 92.0444 34.5407 91.9944 34.7807 91.9744C34.9107 91.9644 34.9907 91.9444 35.0507 91.8044C35.1707 91.5144 35.3507 91.2744 35.6807 91.1744C35.8007 91.1344 35.9207 91.0344 36.0107 90.9444C36.1907 90.7544 36.3907 90.7244 36.6107 90.8444C36.8007 90.9444 37.0207 91.0444 37.1707 91.1944C37.5807 91.6244 37.9807 92.0744 38.3507 92.5344C38.4907 92.7144 38.6507 92.7944 38.8507 92.7744C39.2207 92.7344 39.5607 92.8344 39.8707 93.0244C40.1207 93.1844 40.4107 93.2144 40.7107 93.1844C40.8507 93.1744 40.9307 93.0944 40.9007 92.9744C40.8407 92.7844 40.7607 92.5944 40.6707 92.4244C40.5807 92.2744 40.4407 92.1444 40.3607 91.9944C40.2307 91.7344 40.2907 91.5244 40.5407 91.3844C40.7707 91.2644 40.8607 91.0844 40.9207 90.8444C40.9607 90.6844 41.0807 90.5244 41.2107 90.4244C41.4107 90.2744 41.5307 90.1144 41.5207 89.8744C41.5207 89.5344 41.6807 89.3144 41.9407 89.1244C42.1707 88.9644 42.4007 88.8044 42.6307 88.6444C42.9007 88.4544 43.2107 88.4444 43.4907 88.5744C43.7807 88.7044 44.0207 88.6744 44.3007 88.5744C44.5507 88.4844 44.8307 88.4944 45.1307 88.4544C45.1607 88.2744 45.1807 88.0744 45.2207 87.8844C45.2507 87.7644 45.2907 87.6344 45.3607 87.5344C45.4907 87.3344 45.7207 87.3244 45.8407 87.5344C46.0307 87.8944 46.3207 87.9144 46.6807 87.9044C46.9407 87.9044 47.2107 87.9944 47.4507 88.1144C47.7807 88.2744 48.1007 88.3944 48.4807 88.3444C48.5607 88.3344 48.6607 88.3344 48.7307 88.3644C49.0607 88.5444 49.4107 88.6044 49.7807 88.6044C50.0607 88.6044 50.2607 88.7944 50.4107 89.0744C50.5707 88.9444 50.7007 88.8344 50.8407 88.7244C51.1307 88.4744 51.4207 88.4544 51.6407 88.6744C51.8507 88.8844 51.8307 89.2344 51.6107 89.5144C51.4507 89.7244 51.3107 89.9444 51.1907 90.1744C51.0907 90.3844 50.9507 90.4844 50.7307 90.5344C50.3507 90.6144 50.2607 90.7444 50.3007 91.1244C50.3607 91.6244 50.1707 92.0044 49.7507 92.2744C49.5907 92.3744 49.4207 92.4844 49.1807 92.6444L49.1707 92.6744Z" stroke="#FFFDC0" stroke-miterlimit="10"/>
<path d="M92 50.9141H0V73.9141H92V50.9141Z" fill="#2B2825"/>
<path d="M7.01001 57.7842H15.44V67.5542H14.26V58.2542L14.83 58.8242H7.61005L8.17999 58.2542V67.5542H7V57.7842H7.01001Z" fill="#FEF8C7"/>
<path d="M24.9299 58.9049H18.5599L19.1299 58.3349V67.0149L18.5599 66.4449H24.9299V67.5649H17.96V57.7949H24.9299V58.9149V58.9049ZM18.8 63.1049V62.0449H24.8199V63.1049H18.8Z" fill="#FEF8C7"/>
<path d="M26 57.7842H34.2V58.8742H30.69V67.5542H29.51V58.8742H26V57.7842Z" fill="#FEF8C7"/>
<path d="M42.7098 58.9049H36.3398L36.9098 58.3349V67.0149L36.3398 66.4449H42.7098V67.5649H35.7397V57.7949H42.7098V58.9149V58.9049ZM36.5798 63.1049V62.0449H42.5998V63.1049H36.5798Z" fill="#FEF8C7"/>
<path d="M44.76 57.7842H50.11C51.22 57.7842 52.06 58.0342 52.64 58.5242C53.21 59.0242 53.5 59.7842 53.5 60.8042C53.5 61.8942 53.2 62.6742 52.6 63.1342C52 63.5942 51.09 63.8242 49.86 63.8242H45.56V62.7742H50.08C50.9 62.7742 51.48 62.6142 51.81 62.2842C52.14 61.9542 52.31 61.4642 52.31 60.8042C52.31 60.1442 52.14 59.6442 51.81 59.3242C51.48 58.9942 50.9 58.8342 50.08 58.8342H45.36L45.93 58.2642V67.5642H44.75V57.7942L44.76 57.7842Z" fill="#FEF8C7"/>
<path d="M55.1602 57.7842H62.0101V58.8742H55.7701L56.3401 58.3042V67.5542H55.1602V57.7842Z" fill="#FEF8C7"/>
<path d="M62.3701 62.7043C62.3701 60.9543 62.8301 59.6643 63.7601 58.8643C64.6901 58.0543 66.0601 57.6543 67.8801 57.6543C69.7001 57.6543 71.0901 58.0543 72.0101 58.8643C72.9301 59.6743 73.4001 60.9543 73.4001 62.7043C73.4001 64.4543 72.9401 65.7443 72.0101 66.5443C71.0901 67.3543 69.7101 67.7543 67.8801 67.7543C66.0501 67.7543 64.6801 67.3543 63.7601 66.5443C62.8301 65.7343 62.3701 64.4543 62.3701 62.7043ZM63.6401 62.7043C63.6401 63.5943 63.7702 64.3243 64.0302 64.8943C64.2902 65.4643 64.7402 65.9043 65.3602 66.2143C65.9802 66.5143 66.8201 66.6643 67.8801 66.6643C68.9401 66.6643 69.8101 66.5143 70.4301 66.2143C71.0501 65.9143 71.4901 65.4743 71.7401 64.8943C71.9901 64.3143 72.1201 63.5943 72.1201 62.7043C72.1201 61.8143 71.9901 61.0843 71.7401 60.5143C71.4901 59.9443 71.0501 59.5043 70.4301 59.1943C69.8101 58.8943 68.9601 58.7343 67.8801 58.7343C66.8001 58.7343 65.9802 58.8843 65.3602 59.1943C64.7402 59.4943 64.2902 59.9343 64.0302 60.5143C63.7702 61.0943 63.6401 61.8143 63.6401 62.7043Z" fill="#FEF8C7"/>
<path d="M79.6999 66.644C78.4399 66.644 77.4399 66.4841 76.6999 66.1641C75.9599 65.8441 75.4399 65.3741 75.1199 64.7541C74.7999 64.1341 74.6499 63.3241 74.6499 62.3441C74.6499 61.3641 74.8099 60.5741 75.1199 59.9541C75.4299 59.3241 75.9599 58.8541 76.6999 58.5441C77.4399 58.2241 78.4399 58.0641 79.6899 58.0641L79.6299 58.9441C78.6699 58.9441 77.9099 59.0541 77.3499 59.2841C76.7899 59.5241 76.3999 59.894 76.1699 60.394C75.9399 60.894 75.8199 61.5441 75.8199 62.3441C75.8199 63.1441 75.9299 63.774 76.1399 64.244C76.3499 64.724 76.7299 65.084 77.2799 65.334C77.8299 65.584 78.6099 65.7341 79.6299 65.7641L79.6899 66.6341L79.6999 66.644ZM79.5199 56.9141H80.6999V67.554H79.5199V56.9141ZM80.5699 65.7841C81.5699 65.7841 82.3399 65.674 82.8899 65.424C83.4399 65.174 83.8299 64.804 84.0399 64.304C84.2599 63.804 84.3699 63.1541 84.3699 62.3541C84.3699 61.5541 84.2499 60.9041 84.0199 60.4041C83.7899 59.9041 83.3899 59.5341 82.8399 59.2941C82.2799 59.0541 81.5299 58.9441 80.5599 58.9541L80.4999 58.0741C81.7499 58.0741 82.7399 58.234 83.4799 58.554C84.2199 58.874 84.7399 59.3441 85.0599 59.9641C85.3799 60.5841 85.5399 61.3841 85.5399 62.3541C85.5399 63.3241 85.3799 64.1241 85.0599 64.7541C84.7399 65.3841 84.2199 65.854 83.4799 66.174C82.7399 66.494 81.7499 66.6541 80.4999 66.6541L80.5599 65.7841H80.5699Z" fill="#FEF8C7"/>
</svg>
