<svg width="611" height="105" viewBox="0 0 611 105" fill="none" xmlns="http://www.w3.org/2000/svg">
<path fill-rule="evenodd" clip-rule="evenodd" d="M252.795 20.875H267.193V83.9603H252.795V20.875ZM176.598 21.0916H239.637V35.0303H215.106V84.1244H201.128V35.0303H176.598V21.0916Z" fill="white"/>
<path d="M63.0394 41.9147H104.823V63.1903H63.0394V105H41.7834V63.1903H0V41.9147H41.7834V0.104997H63.0394V41.9147ZM126.026 0V105H147.282V0H126.026Z" fill="white"/>
<path fill-rule="evenodd" clip-rule="evenodd" d="M311.131 99.1791V5.81445H315.357V99.1791H311.131Z" fill="white"/>
<path d="M385.028 35.1152V69.9949H379.233V44.4799L362.289 69.9949H356.441V35.1152H362.289V60.6302L379.233 35.1152H385.028Z" fill="white"/>
<path d="M388.756 40.4119V35.1094H416.601V40.4119H405.654V69.9891H399.761V40.4119H388.762H388.756Z" fill="white"/>
<path d="M415.012 59.1416V53.9375H430.768V59.1416H415.012Z" fill="white"/>
<path d="M430.932 69.9883L439.752 57.303L431.03 44.7227H437.52L443.414 53.5886L449.208 44.7227H455.449L446.78 57.5064L455.548 69.9883H449.011L443.118 61.2208L437.225 69.9883H430.932Z" fill="white"/>
<path d="M467.776 44.1328C475.205 44.1328 480.212 49.5338 480.212 57.3628C480.212 65.1919 475.211 70.5928 467.776 70.5928C460.34 70.5928 455.34 65.1919 455.34 57.3628C455.34 49.5338 460.34 44.1328 467.776 44.1328ZM461.089 57.3563C461.089 62.2125 463.615 65.5791 467.776 65.5791C471.936 65.5791 474.463 62.2125 474.463 57.3563C474.463 52.5 471.936 49.1334 467.776 49.1334C463.615 49.1334 461.089 52.5 461.089 57.3563Z" fill="white"/>
<path d="M480.57 70.0867V65.132H481.364C484.186 65.132 485.131 63.6948 485.427 59.882L486.667 44.7227H505.245V69.9883H499.595V49.6773H491.667L490.775 60.2758C490.23 67.2583 487.651 70.0867 482.106 70.0867H480.57Z" fill="white"/>
<path d="M536.201 65.0336V76.3277H530.754V69.9883H512.918V76.3277H507.471V65.0336H509.505C511.192 64.0952 512.032 61.0239 512.327 57.1586L513.265 44.7227H532.539V65.0336H536.208H536.201ZM515.595 65.0336H526.889V49.6773H518.273L517.675 57.3555C517.426 60.4792 517.131 63.3011 515.595 65.0336Z" fill="white"/>
<path d="M561.474 44.7227V69.9883H555.929V53.1948L544.484 69.9883H539.037V44.7227H544.582V61.5161L556.027 44.7227H561.474Z" fill="white"/>
<path d="M571.969 69.9883H566.318V44.7227H571.969V54.4352H582.816V44.7227H588.467V69.9883H582.816V59.4358H571.969V69.9883Z" fill="white"/>
<path d="M593.315 69.9883V44.7227H610.653V49.6773H598.959V69.9883H593.309H593.315Z" fill="white"/>
</svg>
